<!DOCTYPE svg PUBLIC "-//W3C//DTD SVG 1.1//EN" "http://www.w3.org/Graphics/SVG/1.1/DTD/svg11.dtd">
<!-- Uploaded to: SVG Repo, www.svgrepo.com, Transformed by: SVG Repo Mixer Tools -->
<svg width="800px" height="800px" viewBox="0 0 24 24" fill="none" xmlns="http://www.w3.org/2000/svg">
<g id="SVGRepo_bgCarrier" stroke-width="0"/>
<g id="SVGRepo_tracerCarrier" stroke-linecap="round" stroke-linejoin="round"/>
<g id="SVGRepo_iconCarrier">
<path d="M6.707 5.707a1 1 0 0 0-1.414-1.414l-4 4a1 1 0 0 0 0 1.414l4 4a1 1 0 0 0 1.414-1.414L4.414 10H14a1 1 0 1 0 0-2H4.414l2.293-2.293ZM17.293 10.293a1 1 0 0 1 1.414 0l4 4a1 1 0 0 1 0 1.414l-4 4a1 1 0 0 1-1.414-1.414L19.586 16H10a1 1 0 1 1 0-2h9.586l-2.293-2.293a1 1 0 0 1 0-1.414Z" fill="#ffffff"/>
</g>
</svg>